# xmcd CD database file
#
# Track frame offsets:
#	150
#	32620
#	93243
#	132142
#	160199
#	188498
#	239095
#
# Disc length: 3532 seconds
#
# Revision: 0
# Processed by: cddbd v1.5.1PL2 Copyright (c) Steve Scherf et al.
# Submitted via: CDex 1.51
#
DISCID=4f0dca07
DTITLE=Steve Miller - See Hear
DYEAR=1997
DGENRE=Jazz
TTITLE0=Trailer Park Trash
TTITLE1=Like Old Times
TTITLE2=Tight Wire
TTITLE3=See Hear
TTITLE4=Let Slip
TTITLE5=Just How Close
TTITLE6=Green Lane
EXTD=YEAR: 1997
EXTT0=
EXTT1=
EXTT2=
EXTT3=
EXTT4=
EXTT5=
EXTT6=
PLAYORDER=
